<?xml version="1.0" encoding="UTF-8"?>
<!DOCTYPE svg PUBLIC "-//W3C//DTD SVG 1.1//EN" "http://www.w3.org/Graphics/SVG/1.1/DTD/svg11.dtd">
<!-- Creator: CorelDRAW X6 -->
<svg xmlns="http://www.w3.org/2000/svg" xml:space="preserve" width="43.3492mm" height="43.3492mm" version="1.1" style="shape-rendering:geometricPrecision; text-rendering:geometricPrecision; image-rendering:optimizeQuality; fill-rule:evenodd; clip-rule:evenodd"
viewBox="0 0 4335 4335"
 xmlns:xlink="http://www.w3.org/1999/xlink">
 <defs>
  <style type="text/css">
   <![CDATA[
    .fil0 {fill:#2B2A29}
    .fil1 {fill:#2B2A29;fill-rule:nonzero}
   ]]>
  </style>
 </defs>
 <g id="Layer_x0020_1">
  <metadata id="CorelCorpID_0Corel-Layer"/>
  <path class="fil0" d="M542 76l3260 0c233,0 466,233 466,466l0 3260c0,233 -233,466 -466,466l-3260 0c-233,0 -466,-233 -466,-466l0 -3260c0,-233 233,-466 466,-466zm66 135l3128 0c218,0 396,178 396,396l0 3128c0,218 -178,396 -396,396l-3128 0c-218,0 -396,-178 -396,-396l0 -3128c0,-218 178,-396 396,-396z"/>
  <path class="fil1" d="M1378 3133l0 -1957 298 0 0 278c143,-213 351,-319 621,-319 118,0 226,21 325,63 99,42 173,98 222,167 49,68 84,150 103,244 12,62 18,169 18,322l0 1201 -332 0 0 -1189c0,-135 -13,-236 -38,-303 -26,-67 -72,-120 -137,-160 -65,-40 -143,-60 -231,-60 -141,0 -262,45 -364,134 -102,89 -153,260 -153,510l0 1068 -332 0z"/>
 </g>
</svg>
